<svg width="26" height="26" viewBox="0 0 26 26" fill="none" xmlns="http://www.w3.org/2000/svg">
<g clip-path="url(#clip0_879_7545)">
<path d="M25.0716 12.8886C25.0734 12.6308 25.0214 12.3755 24.9191 12.1389C24.8168 11.9023 24.6663 11.6896 24.4773 11.5143L14.3561 2.17921C13.5902 1.47275 12.4102 1.47275 11.6442 2.17921L1.52304 11.5143C1.33403 11.6896 1.18358 11.9023 1.08126 12.1389C0.978946 12.3755 0.92701 12.6308 0.928753 12.8886V23.2143C0.928753 23.7068 1.12442 24.1792 1.4727 24.5275C1.82098 24.8757 2.29336 25.0714 2.78589 25.0714H23.2144C23.7069 25.0714 24.1794 24.8757 24.5276 24.5275C24.876 24.1792 25.0716 23.7068 25.0716 23.2143V12.8886Z" fill="#3F3C31" fill-opacity="0.5"/>
<path d="M13 25.0714V17.6429" stroke="white" stroke-width="4" stroke-linecap="round" stroke-linejoin="round"/>
</g>
<defs>
<clipPath id="clip0_879_7545">
<rect width="26" height="26" fill="white"/>
</clipPath>
</defs>
</svg>
